<?xml version="1.0" encoding="utf-8"?>
<!-- Generator: Adobe Illustrator 25.2.3, SVG Export Plug-In . SVG Version: 6.00 Build 0)  -->
<svg version="1.1" id="Layer_1" xmlns="http://www.w3.org/2000/svg" xmlns:xlink="http://www.w3.org/1999/xlink" x="0px" y="0px"
	 viewBox="0 0 380.36 96.82" style="enable-background:new 0 0 380.36 96.82;" xml:space="preserve">
<style type="text/css">
	.st0{fill:#543B5B;}
</style>
<path class="st0" d="M124.36,81.98h-0.11c-0.66,0-1.19,0.54-1.19,1.19v3.94c0,0.28-0.19,0.44-0.36,0.5
	c-0.17,0.06-0.42,0.04-0.59-0.18l-3.87-5c-0.22-0.29-0.57-0.46-0.94-0.46h-0.44c-0.66,0-1.19,0.54-1.19,1.19v8.87
	c0,0.66,0.53,1.19,1.19,1.19h0.1c0.66,0,1.19-0.54,1.19-1.19v-4.15c0-0.28,0.19-0.44,0.36-0.5c0.18-0.06,0.42-0.04,0.59,0.18
	l4.04,5.21c0.23,0.29,0.57,0.46,0.94,0.46h0.27c0.66,0,1.19-0.54,1.19-1.19v-8.87C125.55,82.51,125.01,81.98,124.36,81.98"/>
<path class="st0" d="M137.47,81.98h-0.14c-0.66,0-1.19,0.53-1.19,1.19v5.24c0,1.7-0.81,2.6-2.33,2.6c-1.51,0-2.35-0.95-2.35-2.68
	v-5.16c0-0.66-0.54-1.19-1.19-1.19h-0.14c-0.66,0-1.19,0.53-1.19,1.19v5.24c0,3.12,1.81,4.99,4.84,4.99c3.1,0,4.89-1.85,4.89-5.08
	v-5.14C138.66,82.51,138.13,81.98,137.47,81.98"/>
<path class="st0" d="M149.14,81.98h-6.87c-0.66,0-1.19,0.54-1.19,1.19c0,0.66,0.54,1.19,1.19,1.19h1.63c0.29,0,0.53,0.24,0.53,0.53
	v7.14c0,0.66,0.54,1.19,1.19,1.19h0.15c0.66,0,1.19-0.54,1.19-1.19V84.9c0-0.29,0.24-0.53,0.53-0.53h1.63
	c0.66,0,1.19-0.53,1.19-1.19C150.34,82.51,149.8,81.98,149.14,81.98"/>
<path class="st0" d="M159.6,85.79c0,0.89-0.71,1.44-1.85,1.44h-1.86c-0.29,0-0.53-0.24-0.53-0.53v-1.83c0-0.29,0.24-0.53,0.53-0.53
	h1.85C158.59,84.33,159.6,84.58,159.6,85.79 M160.39,88.8c1.15-0.65,1.76-1.73,1.76-3.14c0-0.99-0.34-1.86-0.98-2.52
	c-0.77-0.75-1.91-1.15-3.29-1.15h-3.86c-0.66,0-1.19,0.54-1.19,1.19v8.87c0,0.66,0.54,1.19,1.19,1.19h0.14
	c0.66,0,1.19-0.53,1.19-1.19v-1.97c0-0.29,0.24-0.53,0.53-0.53h1.02c0.17,0,0.34,0.08,0.44,0.22l2.09,2.96
	c0.22,0.32,0.59,0.51,0.98,0.51h0.08c0.45,0,0.86-0.25,1.06-0.65c0.21-0.4,0.17-0.87-0.09-1.24l-1.26-1.77
	c-0.09-0.12-0.12-0.27-0.08-0.42C160.15,89.01,160.25,88.88,160.39,88.8"/>
<path class="st0" d="M166.56,81.98h-0.14c-0.66,0-1.19,0.53-1.19,1.19v8.87c0,0.66,0.54,1.19,1.19,1.19h0.14
	c0.66,0,1.19-0.53,1.19-1.19v-8.87C167.75,82.51,167.22,81.98,166.56,81.98"/>
<path class="st0" d="M178.35,81.98h-6.87c-0.66,0-1.19,0.54-1.19,1.19c0,0.66,0.54,1.19,1.19,1.19h1.63c0.29,0,0.53,0.24,0.53,0.53
	v7.14c0,0.66,0.54,1.19,1.19,1.19h0.15c0.66,0,1.19-0.54,1.19-1.19V84.9c0-0.29,0.24-0.53,0.53-0.53h1.63
	c0.66,0,1.19-0.53,1.19-1.19C179.54,82.51,179.01,81.98,178.35,81.98"/>
<path class="st0" d="M183.42,81.98h-0.13c-0.66,0-1.2,0.53-1.2,1.19v8.87c0,0.66,0.54,1.19,1.2,1.19h0.13c0.66,0,1.2-0.53,1.2-1.19
	v-8.87C184.61,82.51,184.08,81.98,183.42,81.98"/>
<path class="st0" d="M196.73,87.6v0.03c0,1.93-1.39,3.39-3.24,3.39c-1.86,0-3.27-1.47-3.27-3.45c0-1.94,1.39-3.41,3.24-3.41
	C195.33,84.17,196.73,85.65,196.73,87.6 M193.49,81.8c-3.3,0-5.88,2.55-5.88,5.81v0.03c0,3.29,2.52,5.78,5.85,5.78
	c3.3,0,5.88-2.55,5.88-5.84C199.35,84.28,196.83,81.8,193.49,81.8"/>
<path class="st0" d="M211.03,81.98h-0.11c-0.66,0-1.19,0.54-1.19,1.19v3.94c0,0.28-0.19,0.44-0.36,0.5
	c-0.17,0.06-0.42,0.05-0.59-0.18l-3.87-4.99c-0.22-0.29-0.58-0.46-0.94-0.46h-0.44c-0.66,0-1.19,0.54-1.19,1.19v8.87
	c0,0.66,0.54,1.19,1.19,1.19h0.11c0.66,0,1.19-0.54,1.19-1.19v-4.15c0-0.28,0.19-0.44,0.36-0.5c0.17-0.06,0.42-0.04,0.59,0.18
	l4.04,5.21c0.23,0.29,0.57,0.46,0.94,0.46h0.27c0.66,0,1.19-0.54,1.19-1.19v-8.87C212.22,82.51,211.69,81.98,211.03,81.98"/>
<path class="st0" d="M133.24,68.65c0.73-0.54,0.97-1.53,0.56-2.34l-2.68-5.26c-0.23-0.45-0.66-0.78-1.16-0.88
	c-0.5-0.1-1.61,0.55-3.12,0.96c-0.66,0.18-1.3,0.28-1.87,0.28c-2.52,0-3.74-1.44-3.74-4.4V45.07c0-1.04,0.85-1.89,1.89-1.89h7.48
	c1.04,0,1.89-0.85,1.89-1.89V36c0-1.04-0.85-1.89-1.89-1.89h-7.48c-1.04,0-1.89-0.84-1.89-1.89V25.8c0-1.04-0.85-1.89-1.89-1.89
	h-6.49c-1.04,0-1.89,0.84-1.89,1.89v6.42c0,1.04-0.85,1.89-1.89,1.89h-3.31c-1.04,0-1.89,0.85-1.89,1.89v5.3
	c0,1.04,0.84,1.89,1.89,1.89h3.31c1.04,0,1.89,0.84,1.89,1.89v12.38c0,8.65,5.06,13.81,13.54,13.81c2.23,0,4.14-0.38,6.24-1.3
	C131.57,69.6,133.24,68.65,133.24,68.65z"/>
<path class="st0" d="M153.25,61.8c-5.41,0-9.04-3.85-9.04-9.57c0-5.63,3.72-9.57,9.04-9.57c4.48,0,9.11,3.58,9.11,9.57
	C162.36,58.22,157.73,61.8,153.25,61.8 M170.8,34.11h-6.55c-1.04,0-1.89,0.85-1.89,1.89v0.03c-2.89-1.87-6.37-2.84-10.23-2.84
	c-10.08,0-17.98,8.36-17.98,19.04c0,11.92,9.14,19.04,17.98,19.04c3.85,0,7.33-0.96,10.23-2.82c0,1.04,0.85,1.89,1.89,1.89h6.55
	c1.04,0,1.89-0.85,1.89-1.89V36C172.69,34.96,171.84,34.11,170.8,34.11"/>
<path class="st0" d="M185.22,20.54c-3.09,0-5.51,2.37-5.51,5.39c0,3.04,2.37,5.33,5.51,5.33c3.11,0,5.45-2.29,5.45-5.33
	C190.68,22.96,188.23,20.54,185.22,20.54"/>
<path class="st0" d="M188.47,34.11h-6.49c-1.04,0-1.89,0.85-1.89,1.89v32.45c0,1.04,0.85,1.89,1.89,1.89h6.49
	c1.04,0,1.89-0.85,1.89-1.89V36C190.36,34.96,189.52,34.11,188.47,34.11"/>
<path class="st0" d="M207.61,19.28h-6.49c-1.04,0-1.89,0.85-1.89,1.89v47.29c0,1.04,0.85,1.89,1.89,1.89h6.49
	c1.04,0,1.89-0.85,1.89-1.89V21.17C209.5,20.12,208.66,19.28,207.61,19.28"/>
<path class="st0" d="M265.26,34.11h-6.74c-0.82,0-1.54,0.53-1.79,1.3l-4.1,12.52c-0.56,1.72-3,1.74-3.58,0.02l-4.26-12.55
	c-0.26-0.77-0.98-1.28-1.79-1.28h-5.15c-0.81,0-1.53,0.52-1.79,1.28l-4.26,12.55c-0.58,1.72-3.02,1.71-3.58-0.02l-4.1-12.51
	c-0.25-0.78-0.98-1.3-1.79-1.3h-6.74c-0.54,0-1.05,0.26-1.37,0.7c-0.32,0.44-0.4,1.01-0.23,1.52l10.95,32.85
	c0.26,0.77,0.98,1.29,1.79,1.29h6.01c0.81,0,1.52-0.51,1.79-1.28l4.12-12.07c0.58-1.7,2.99-1.7,3.57,0l4.12,12.07
	c0.26,0.76,0.98,1.28,1.79,1.28h6.01c0.81,0,1.53-0.52,1.79-1.29l10.95-32.85c0.17-0.51,0.08-1.08-0.23-1.52
	C266.32,34.37,265.81,34.11,265.26,34.11"/>
<path class="st0" d="M279.68,34.11h-6.49c-1.04,0-1.89,0.85-1.89,1.89v32.45c0,1.04,0.85,1.89,1.89,1.89h6.49
	c1.04,0,1.89-0.85,1.89-1.89V36C281.57,34.96,280.72,34.11,279.68,34.11"/>
<path class="st0" d="M310.41,33.19c-3.73,0-7.02,0.97-9.7,2.83V36c0-1.04-0.85-1.89-1.89-1.89h-6.49c-1.04,0-1.89,0.85-1.89,1.89
	v32.45c0,1.04,0.85,1.89,1.89,1.89h6.49c1.04,0,1.89-0.85,1.89-1.89V53.48c0-4.82,1.41-10.56,8.11-10.56c3.72,0,6.13,2.85,6.13,7.25
	v18.28c0,1.04,0.85,1.89,1.89,1.89h6.56c1.04,0,1.89-0.85,1.89-1.89V48.78C325.28,39.6,319.16,33.19,310.41,33.19"/>
<path class="st0" d="M349.09,61.8c-5.41,0-9.04-3.85-9.04-9.57c0-5.64,3.72-9.57,9.04-9.57c4.48,0,9.11,3.58,9.11,9.57
	C358.2,58.22,353.57,61.8,349.09,61.8 M366.64,19.28h-6.56c-1.04,0-1.89,0.85-1.89,1.89v11.75c0,1.35-1.38,2.25-2.62,1.73
	c-2.29-0.96-4.85-1.46-7.61-1.46c-10.08,0-17.98,8.36-17.98,19.04c0,11.92,9.14,19.04,17.98,19.04c3.85,0,7.33-0.96,10.23-2.81
	c0,1.04,0.85,1.89,1.89,1.89h6.56c1.04,0,1.89-0.85,1.89-1.89V21.17C368.53,20.12,367.68,19.28,366.64,19.28"/>
<path class="st0" d="M375.75,23.85h0.76c0.33,0,0.55-0.25,0.55-0.54c0-0.31-0.21-0.55-0.53-0.55h-0.78V23.85z M377.02,26.04
	l-1.01-1.4h-0.26v1.4h-0.79v-4.06h1.58c0.83,0,1.31,0.61,1.31,1.33c0,0.6-0.3,1.12-0.89,1.26l1.03,1.46H377.02z M373.02,23.99
	c0,0.93,0.32,1.71,0.97,2.37c0.64,0.66,1.42,0.98,2.34,0.98s1.7-0.32,2.35-0.98c0.64-0.65,0.96-1.44,0.96-2.37
	c0-0.93-0.32-1.71-0.96-2.37c-0.64-0.66-1.42-0.99-2.35-0.99s-1.7,0.33-2.34,0.99C373.34,22.28,373.02,23.06,373.02,23.99
	 M372.32,23.99c0-1.13,0.39-2.08,1.16-2.87c0.78-0.79,1.74-1.2,2.85-1.2c1.11,0,2.07,0.4,2.85,1.2c0.78,0.79,1.17,1.75,1.17,2.87
	c0,1.13-0.39,2.08-1.17,2.87c-0.78,0.79-1.74,1.18-2.85,1.18c-1.11,0-2.07-0.39-2.85-1.18C372.71,26.07,372.32,25.12,372.32,23.99"
	/>
<g>
	<path class="st0" d="M71.54,2.04C50.77-4.91,25.78,6.52,17.68,26.91l0,0l0,0c0,0-0.02-0.01-0.02-0.01
		c-0.28,0.73-0.69,1.75-0.94,2.48l0,0l0,0c-3.89,11.05-0.17,24.13,8.88,31.54c1.61,1.35,3.36,2.53,5.23,3.5
		c0.84,0.43,1.87,0.04,2.21-0.84c0.36-0.92,1.53-3.92,1.87-4.79l0,0l0.63-1.61c0.75-1.93,0.21-4.16-1.43-5.43
		c-0.97-0.75-1.84-1.61-2.61-2.56c-3.4-4.19-4.76-10.07-3.1-15.26l-0.05-0.02c0.28-0.73,0.67-1.75,0.99-2.46l0,0l0,0l0,0l0,0
		c5.53-13.43,21.29-21.36,35.41-18.31c2.72,0.59,5.06-1.25,5.76-3.84c0,0,2.03-5.19,2.03-5.19C72.87,3.28,72.41,2.33,71.54,2.04z"/>
	<path class="st0" d="M2.04,25.3c-6.95,20.77,4.48,45.76,24.88,53.86l0,0l0,0c0,0-0.01,0.02-0.01,0.02
		c0.73,0.28,1.75,0.69,2.48,0.94l0,0l0,0c11.05,3.89,24.13,0.17,31.54-8.88c1.35-1.61,2.53-3.36,3.5-5.23
		c0.43-0.84,0.04-1.87-0.84-2.21c-0.92-0.36-3.92-1.53-4.79-1.87l0,0L57.2,61.3c-1.93-0.75-4.16-0.21-5.43,1.43
		c-0.75,0.97-1.61,1.84-2.56,2.61c-4.19,3.4-10.07,4.76-15.26,3.1l-0.02,0.05c-0.73-0.28-1.75-0.67-2.46-0.99l0,0l0,0l0,0l0,0
		c-13.43-5.53-21.36-21.29-18.31-35.41c0.59-2.72-1.25-5.06-3.84-5.76c0,0-5.19-2.03-5.19-2.03C3.28,23.97,2.33,24.43,2.04,25.3z"/>
	<path class="st0" d="M94.8,71.54c6.95-20.77-4.48-45.76-24.88-53.86l0,0l0,0c0,0,0.01-0.02,0.01-0.02
		c-0.73-0.28-1.75-0.69-2.48-0.94l0,0l0,0C56.4,12.83,43.32,16.55,35.9,25.6c-1.35,1.61-2.53,3.36-3.5,5.23
		c-0.43,0.84-0.04,1.87,0.84,2.21c0.92,0.36,3.92,1.53,4.79,1.87l0,0l1.61,0.63c1.93,0.75,4.16,0.21,5.43-1.43
		c0.75-0.97,1.61-1.84,2.56-2.61c4.19-3.4,10.07-4.76,15.26-3.1l0.02-0.05c0.73,0.28,1.75,0.67,2.46,0.99l0,0l0,0l0,0l0,0
		c13.43,5.53,21.36,21.29,18.31,35.41c-0.59,2.72,1.25,5.06,3.84,5.76c0,0,5.19,2.03,5.19,2.03C93.56,72.87,94.51,72.41,94.8,71.54z
		"/>
	<polygon class="st0" points="67.5,65.37 67.5,65.37 67.5,65.37 	"/>
	<path class="st0" d="M71.23,35.9c-1.61-1.35-3.36-2.53-5.23-3.5c-0.84-0.43-1.87-0.04-2.21,0.84c-0.36,0.92-1.53,3.92-1.87,4.79
		l-0.63,1.61c-0.75,1.93-0.21,4.16,1.43,5.43c0.97,0.75,1.84,1.61,2.61,2.56c3.4,4.19,4.76,10.07,3.1,15.26l0.05,0.02
		c-0.28,0.73-0.67,1.75-0.99,2.46l0,0l0,0l0,0l0,0c-4.89,11.88-17.79,19.46-30.48,18.93c-0.8-0.03-4.3-0.49-5.98,0.07
		c-1.71,0.57-2.3,1.91-2.75,3.07c0,0-2.01,5.83-2.01,5.83c-0.3,0.92,0.23,1.9,1.17,2.16c0.07,0.02,0.17,0.05,0.28,0.07c0,0,0,0,0,0
		c0,0,0.01,0,0.01,0c0.14,0.04,0.28,0.07,0.38,0.1l0-0.01c20.16,5.08,43.3-6.2,51.04-25.68l0,0l0,0c0,0,0.02,0.01,0.02,0.01
		c0.28-0.73,0.69-1.75,0.94-2.48l0,0l0,0C84.01,56.4,80.29,43.32,71.23,35.9z"/>
</g>
<path class="st0" d="M276.46,20.54c-3.09,0-5.51,2.37-5.51,5.39c0,3.04,2.37,5.33,5.51,5.33c3.11,0,5.45-2.29,5.45-5.33
	C281.92,22.96,279.47,20.54,276.46,20.54"/>
</svg>
